# xmcd
#
# Track frame offsets: 
#        150
#        7644
#        24210
#        58695
#        91483
#        114543
#        124468
#        159194
#        192434
#        224576
#
# Disc length: 3083 seconds
#
# Revision: 4
# Processed by: cddbd v1.5.2PL0 Copyright (c) Steve Scherf et al.
# Submitted via: ExactAudioCopy v0.95b4
#
DISCID=7e0c090a
DTITLE=Pagan Reign - Древние воины
DYEAR=2002
DGENRE=Pagan Metal
TTITLE0=У истока (instrumental)
TTITLE1=Рассвет
TTITLE2=И Бога распяли...
TTITLE3=Древние воины
TTITLE4=Знамение Перуна
TTITLE5=Тризна
TTITLE6=Меч воина
TTITLE7=Огонь славянских сердец
TTITLE8=Смерть - дар богов
TTITLE9=Исход (instrumental)
EXTD=
EXTT0=
EXTT1=
EXTT2=
EXTT3=
EXTT4=
EXTT5=
EXTT6=
EXTT7=
EXTT8=
EXTT9=
PLAYORDER=
